<svg width="128" height="128" viewBox="0 0 128 128" xmlns="http://www.w3.org/2000/svg">
  <defs>
    <linearGradient id="gradient128" x1="0%" y1="0%" x2="100%" y2="100%">
      <stop offset="0%" style="stop-color:#7c3aed;stop-opacity:1" />
      <stop offset="100%" style="stop-color:#3b82f6;stop-opacity:1" />
    </linearGradient>
    <filter id="glow">
      <feGaussianBlur stdDeviation="2" result="coloredBlur"/>
      <feMerge> 
        <feMergeNode in="coloredBlur"/>
        <feMergeNode in="SourceGraphic"/>
      </feMerge>
    </filter>
  </defs>
  
  <!-- Background circle -->
  <circle cx="64" cy="64" r="60" fill="url(#gradient128)" stroke="none"/>
  
  <!-- Inner shadow for depth -->
  <circle cx="64" cy="64" r="55" fill="none" stroke="rgba(255,255,255,0.1)" stroke-width="1"/>
  
  <!-- Price/trend icon -->
  <g transform="translate(20, 20)">
    <!-- Background circle for icon area -->
    <circle cx="44" cy="44" r="35" fill="white" opacity="0.1"/>
    
    <!-- Large dollar sign -->
    <text x="44" y="55" text-anchor="middle" dominant-baseline="central" 
          font-family="Arial, sans-serif" font-weight="bold" font-size="40" 
          fill="white" filter="url(#glow)">$</text>
    
    <!-- Main trend arrow -->
    <path d="M8 60 L24 44 L36 52 L76 16" stroke="white" stroke-width="6" 
          fill="none" stroke-linecap="round" opacity="0.9" filter="url(#glow)"/>
    <path d="M64 16 L76 16 L76 28" stroke="white" stroke-width="6" 
          fill="none" stroke-linecap="round" opacity="0.9" filter="url(#glow)"/>
          
    <!-- Price comparison elements -->
    <g opacity="0.7">
      <!-- Price tags -->
      <circle cx="16" cy="20" r="4" fill="white"/>
      <circle cx="32" cy="12" r="3" fill="white"/>
      <circle cx="52" cy="8" r="3" fill="white"/>
      <circle cx="68" cy="32" r="4" fill="white"/>
      
      <!-- Secondary trend lines -->
      <path d="M12 72 L20 64 L28 68 L36 60" stroke="white" stroke-width="3" 
            fill="none" stroke-linecap="round" opacity="0.5"/>
      <path d="M52 76 L60 68 L68 72 L76 64" stroke="white" stroke-width="3" 
            fill="none" stroke-linecap="round" opacity="0.5"/>
    </g>
  </g>
  
  <!-- Outer highlight -->
  <circle cx="64" cy="64" r="62" fill="none" stroke="rgba(255,255,255,0.2)" stroke-width="1"/>
</svg>
